<?xml version="1.0" encoding="iso-8859-1"?>
<!-- Generator: Adobe Illustrator 19.0.0, SVG Export Plug-In . SVG Version: 6.00 Build 0)  -->
<svg version="1.1" id="Capa_1" xmlns="http://www.w3.org/2000/svg" xmlns:xlink="http://www.w3.org/1999/xlink" x="0px" y="0px"
	 viewBox="0 0 512 512" style="enable-background:new 0 0 512 512;" xml:space="preserve">
<g>
	<path style="fill:#B0D3F0;" d="M170.411,98.304c-5.121-2.918-10.916-4.448-16.811-4.437c0-28.277-22.923-51.2-51.2-51.2
		s-51.2,22.923-51.2,51.2c-18.851,0-34.133,15.282-34.133,34.133c0,18.851,15.282,34.133,34.133,34.133h53.419L139.802,128
		L170.411,98.304z"/>
	<path style="fill:#2980BA;" d="M238.933,8.533v35.072c-25.6,17.152-59.733,0-59.733,0V8.533
		C179.2,8.533,213.333,25.685,238.933,8.533z"/>
	<path style="fill:#A5A5A4;" d="M179.2,102.4c-2.263,0.001-4.434-0.898-6.035-2.499c-1.6-1.6-2.499-3.771-2.499-6.035V8.533
		c0-4.713,3.821-8.533,8.533-8.533s8.533,3.821,8.533,8.533v85.333c0.001,2.263-0.898,4.434-2.499,6.035
		C183.634,101.502,181.463,102.401,179.2,102.4z"/>
	<path style="fill:#2980BA;" d="M409.6,8.533v35.072c-25.6,17.152-59.733,0-59.733,0V8.533C349.867,8.533,384,25.685,409.6,8.533z"
		/>
	<path style="fill:#A5A5A4;" d="M349.867,102.4c-2.263,0.001-4.434-0.898-6.035-2.499s-2.499-3.771-2.499-6.035V8.533
		c0-4.713,3.821-8.533,8.533-8.533c4.713,0,8.533,3.821,8.533,8.533v85.333c0.001,2.263-0.898,4.434-2.499,6.035
		S352.13,102.401,349.867,102.4z"/>
	<path style="fill:#FDD7AD;" d="M486.4,469.333h-8.533v-230.4h25.6L354.133,93.867H166.4L17.067,238.933h25.6v230.4h-8.533
		c-4.707,0.014-8.52,3.826-8.533,8.533v25.6h469.333v-25.6C494.92,473.16,491.107,469.347,486.4,469.333z"/>
	<rect x="290.133" y="281.6" style="fill:#CBB292;" width="187.733" height="187.733"/>
	<rect x="290.133" y="238.933" style="fill:#7F6E5D;" width="187.733" height="42.667"/>
	<polygon style="fill:#F0785A;" points="503.467,238.933 315.733,238.933 166.4,93.867 354.133,93.867 	"/>
	<polygon style="fill:#F09372;" points="315.733,238.933 17.067,238.933 166.4,93.867 	"/>
	<rect x="42.667" y="238.933" style="fill:#CBB292;" width="247.467" height="42.667"/>
	<g>
		<rect x="85.333" y="315.733" style="fill:#A5A5A4;" width="34.133" height="119.467"/>
		<rect x="213.333" y="315.733" style="fill:#A5A5A4;" width="34.133" height="119.467"/>
	</g>
	<circle style="fill:#FFFFFF;" cx="162.133" cy="179.2" r="25.6"/>
	<g>
		<path style="fill:#B0D3F0;" d="M341.333,332.8c9.426,0,17.067,7.641,17.067,17.067v51.2h-34.133v-51.2
			C324.267,340.441,331.908,332.8,341.333,332.8z"/>
		<path style="fill:#B0D3F0;" d="M426.667,332.8c9.426,0,17.067,7.641,17.067,17.067v51.2H409.6v-51.2
			C409.6,340.441,417.241,332.8,426.667,332.8z"/>
	</g>
	<path style="fill:#A5A5A4;" d="M307.2,477.867v25.6H25.6v-25.6c0.014-4.707,3.826-8.52,8.533-8.533h264.533
		C303.374,469.347,307.186,473.16,307.2,477.867z"/>
	<path style="fill:#5E5F62;" d="M494.933,477.867v25.6H307.2v-25.6c-0.014-4.707-3.826-8.52-8.533-8.533H486.4
		C491.107,469.347,494.92,473.16,494.933,477.867z"/>
	<path style="fill:#BDC3C7;" d="M503.467,512H8.533C3.821,512,0,508.18,0,503.467c0-4.713,3.821-8.533,8.533-8.533h494.933
		c4.713,0,8.533,3.821,8.533,8.533C512,508.18,508.18,512,503.467,512z"/>
	<g>
		<path style="fill:#5E5F62;" d="M76.8,281.6H128v25.6c0,4.713-3.821,8.533-8.533,8.533H85.333c-4.713,0-8.533-3.82-8.533-8.533
			V281.6z"/>
		<path style="fill:#5E5F62;" d="M85.333,435.2h34.133c4.713,0,8.533,3.821,8.533,8.533v25.6H76.8v-25.6
			C76.8,439.021,80.621,435.2,85.333,435.2z"/>
		<path style="fill:#5E5F62;" d="M204.8,281.6H256v25.6c0,4.713-3.82,8.533-8.533,8.533h-34.133c-4.713,0-8.533-3.82-8.533-8.533
			V281.6z"/>
		<path style="fill:#5E5F62;" d="M213.333,435.2h34.133c4.713,0,8.533,3.821,8.533,8.533v25.6h-51.2v-25.6
			C204.8,439.021,208.621,435.2,213.333,435.2z"/>
	</g>
</g>
<g>
</g>
<g>
</g>
<g>
</g>
<g>
</g>
<g>
</g>
<g>
</g>
<g>
</g>
<g>
</g>
<g>
</g>
<g>
</g>
<g>
</g>
<g>
</g>
<g>
</g>
<g>
</g>
<g>
</g>
</svg>
